<?xml version="1.0" encoding="utf-8"?>
<!-- Generator: Adobe Illustrator 19.1.0, SVG Export Plug-In . SVG Version: 6.00 Build 0)  -->
<svg version="1.1" id="Layer_1" xmlns="http://www.w3.org/2000/svg" xmlns:xlink="http://www.w3.org/1999/xlink" x="0px" y="0px"
	 viewBox="-230.3 911.2 455.1 184" style="enable-background:new -230.3 911.2 455.1 184;" xml:space="preserve">
<style type="text/css">
	.st0{opacity:0.5;enable-background:new    ;}
	.st1{fill:#FFFFFF;}
	.st2{opacity:0.5;}
	.st3{enable-background:new    ;}
	.st4{opacity:0.3;}
	.st5{fill:none;stroke:#231F20;stroke-width:2;stroke-miterlimit:10;}
	.st6{fill:none;stroke:#231F20;stroke-width:3;stroke-miterlimit:10;}
</style>
<g class="st0">
	<path class="st1" d="M-187.1,1057.3v-13.4h-3v-1.2c1.8-0.1,3.2-0.6,3.5-2.2h1.4v16.8H-187.1z"/>
</g>
<g class="st2">
	<g class="st3">
		<path class="st1" d="M169.6,959.6c-2.1,0-4.1-1.1-5.2-2.3l1.2-1.2c1.1,1.1,2.4,1.9,4.1,1.9c2.7,0,4-1.2,4-3.4c0-2.1-1.6-3.2-4-3.2
			h-1.1v-1.6h1.2c2.2,0,3.2-1.2,3.2-3c0-1.6-0.9-2.9-3.5-2.9c-1.4,0-2.5,0.6-3.4,1.5l-1.1-1.1c1-1,2.6-2,4.6-2c3,0,5.3,1.4,5.3,4.3
			c0,2-0.9,3.2-2.4,3.9c1.6,0.4,3.1,1.5,3.1,4C175.6,957.7,173.3,959.6,169.6,959.6z"/>
	</g>
</g>
<g class="st2">
	<g class="st3">
		<path class="st1" d="M-192.6,1008.6c0.2-4.2,2.2-6,5.4-8.2c3-2,3.6-2.8,3.6-4.4c0-1.7-1.2-2.8-3.4-2.8c-1.9,0-3,0.6-4.1,1.6
			l-1.1-1.4c1.4-1.1,2.8-1.9,5.2-1.9c3,0,5.2,1.4,5.2,4.4c0,2.5-1.2,3.5-4.2,5.6c-3.4,2.3-4.2,3.5-4.5,5.3h8.9v1.8L-192.6,1008.6
			L-192.6,1008.6z"/>
	</g>
</g>
<g class="st2">
	<g class="st3">
		<path class="st1" d="M174.6,992.8v4h-1.7v-4h-9v-1.5l8.7-11.3h2v11.2h2.3v1.6H174.6z M172.8,983.8v-1.5c-0.5,0.7-1.5,2.1-2.4,3.2
			l-2.3,3c-0.7,0.9-1.7,2.2-2.3,2.9h1.5h5.4v-7.6H172.8z"/>
	</g>
</g>
<g class="st4">
	<g>
		<polyline class="st5" points="-229.7,912.5 -220.3,920.5 -210.8,912.5 -201.4,920.5 -191.9,912.5 -182.4,920.5 -173,912.5 
			-163.5,920.5 -154.1,912.5 -144.6,920.5 -135.2,912.5 -125.7,920.5 -116.3,912.5 -106.8,920.5 -97.4,912.5 -87.9,920.5 
			-78.5,912.5 -69,920.5 -59.6,912.5 -50.1,920.5 -40.6,912.5 -31.2,920.5 -21.7,912.5 -12.3,920.5 -2.8,912.5 6.6,920.5 
			16.1,912.5 25.5,920.5 35,912.5 44.4,920.5 53.9,912.5 63.3,920.5 72.8,912.5 82.2,920.5 91.7,912.5 101.2,920.5 110.6,912.5 
			120.1,920.5 129.5,912.5 139,920.5 148.4,912.5 157.9,920.5 167.4,912.5 176.8,920.5 186.3,912.5 195.7,920.5 205.2,912.5 
			214.7,920.5 224.1,912.5 		"/>
	</g>
	<g>
		<polyline class="st5" points="-229.7,1085.9 -220.3,1093.9 -210.8,1085.9 -201.4,1093.9 -191.9,1085.9 -182.4,1093.9 -173,1085.9 
			-163.5,1093.9 -154.1,1085.9 -144.6,1093.9 -135.2,1085.9 -125.7,1093.9 -116.3,1085.9 -106.8,1093.9 -97.4,1085.9 -87.9,1093.9 
			-78.5,1085.9 -69,1093.9 -59.6,1085.9 -50.1,1093.9 -40.6,1085.9 -31.2,1093.9 -21.7,1085.9 -12.3,1093.9 -2.8,1085.9 6.6,1093.9 
			16.1,1085.9 25.5,1093.9 35,1085.9 44.4,1093.9 53.9,1085.9 63.3,1093.9 72.8,1085.9 82.2,1093.9 91.7,1085.9 101.2,1093.9 
			110.6,1085.9 120.1,1093.9 129.5,1085.9 139,1093.9 148.4,1085.9 157.9,1093.9 167.4,1085.9 176.8,1093.9 186.3,1085.9 
			195.7,1093.9 205.2,1085.9 214.7,1093.9 224.1,1085.9 		"/>
	</g>
	<g>
		<rect x="-205.5" y="1023.5" class="st6" width="37.8" height="49.1"/>
		<rect x="-205.5" y="976.6" class="st6" width="37.8" height="46.9"/>
		<rect x="142.5" y="931.3" class="st6" width="57.5" height="38"/>
		<rect x="142.5" y="969.4" class="st6" width="57.5" height="37.2"/>
		<polyline class="st6" points="-70.1,918.6 -69.5,1023.5 -70.1,918.6 		"/>
		<polyline class="st6" points="64.4,919.9 64.8,1023.5 64.4,919.9 		"/>
		<line class="st6" x1="200" y1="1089.9" x2="200" y2="916.5"/>
		<line class="st6" x1="-205.5" y1="916.5" x2="-205.5" y2="1089.9"/>
		<g>
			<polyline class="st6" points="142.5,969.3 127.8,969.3 115.1,984.1 115.1,1023.5 107.5,1023.5 			"/>
			<polyline class="st6" points="71.5,1023.5 64.5,1023.5 15.2,1023.5 			"/>
			<polyline class="st6" points="-20.8,1023.5 -69.7,1023.5 -103.1,1023.5 			"/>
			<polyline class="st6" points="-139.1,1023.5 -146,1023.5 -146,952.7 -205.5,952.7 			"/>
		</g>
	</g>
</g>
</svg>
