<?xml version="1.0" encoding="utf-8"?>
<!-- Generator: Adobe Illustrator 19.1.0, SVG Export Plug-In . SVG Version: 6.00 Build 0)  -->
<svg version="1.1" id="Layer_1" xmlns="http://www.w3.org/2000/svg" xmlns:xlink="http://www.w3.org/1999/xlink" x="0px" y="0px"
	 viewBox="-77 303.3 456.4 186.7" style="enable-background:new -77 303.3 456.4 186.7;" xml:space="preserve">
<style type="text/css">
	.st0{opacity:0.5;fill:#FFFFFF;enable-background:new    ;}
	.st1{font-family:'Interstate-Light';}
	.st2{font-size:24px;}
	.st3{opacity:0.5;}
	.st4{fill:#FFFFFF;}
	.st5{opacity:0.3;}
	.st6{fill:none;stroke:#231F20;stroke-width:2;stroke-miterlimit:10;}
	.st7{fill:none;stroke:#231F20;stroke-width:3;stroke-miterlimit:10;}
</style>
<text transform="matrix(1 0 0 1 -36.4755 450.7054)" class="st0 st1 st2">1</text>
<g class="st3">
	<text transform="matrix(1 0 0 1 317.6575 352.704)" class="st4 st1 st2">3</text>
</g>
<g class="st3">
	<text transform="matrix(1 0 0 1 -39.5587 401.9561)" class="st4 st1 st2">2</text>
</g>
<g class="st3">
	<text transform="matrix(1 0 0 1 316.9137 390.2076)" class="st4 st1 st2">4</text>
</g>
<g class="st5">
	<g>
		<polyline class="st6" points="-75.7,305.9 -66.3,313.9 -56.8,305.9 -47.4,313.9 -37.9,305.9 -28.4,313.9 -19,305.9 -9.5,313.9 
			-0.1,305.9 9.4,313.9 18.8,305.9 28.3,313.9 37.7,305.9 47.2,313.9 56.6,305.9 66.1,313.9 75.5,305.9 85,313.9 94.4,305.9 
			103.9,313.9 113.4,305.9 122.8,313.9 132.3,305.9 141.7,313.9 151.2,305.9 160.6,313.9 170.1,305.9 179.5,313.9 189,305.9 
			198.4,313.9 207.9,305.9 217.3,313.9 226.8,305.9 236.2,313.9 245.7,305.9 255.2,313.9 264.6,305.9 274.1,313.9 283.5,305.9 
			293,313.9 302.4,305.9 311.9,313.9 321.4,305.9 330.8,313.9 340.3,305.9 349.7,313.9 359.2,305.9 368.7,313.9 378.1,305.9 		"/>
	</g>
	<g>
		<polyline class="st6" points="-75.7,479.3 -66.3,487.3 -56.8,479.3 -47.4,487.3 -37.9,479.3 -28.4,487.3 -19,479.3 -9.5,487.3 
			-0.1,479.3 9.4,487.3 18.8,479.3 28.3,487.3 37.7,479.3 47.2,487.3 56.6,479.3 66.1,487.3 75.5,479.3 85,487.3 94.4,479.3 
			103.9,487.3 113.4,479.3 122.8,487.3 132.3,479.3 141.7,487.3 151.2,479.3 160.6,487.3 170.1,479.3 179.5,487.3 189,479.3 
			198.4,487.3 207.9,479.3 217.3,487.3 226.8,479.3 236.2,487.3 245.7,479.3 255.2,487.3 264.6,479.3 274.1,487.3 283.5,479.3 
			293,487.3 302.4,479.3 311.9,487.3 321.4,479.3 330.8,487.3 340.3,479.3 349.7,487.3 359.2,479.3 368.7,487.3 378.1,479.3 		"/>
	</g>
	<g>
		<rect x="-51.5" y="416.9" class="st7" width="37.8" height="49.1"/>
		<rect x="-51.5" y="370" class="st7" width="37.8" height="46.9"/>
		<rect x="296.5" y="324.7" class="st7" width="57.5" height="38"/>
		<rect x="296.5" y="362.8" class="st7" width="57.5" height="37.2"/>
		<polyline class="st7" points="83.9,312 84.5,416.9 83.9,312 		"/>
		<polyline class="st7" points="218.4,313.3 218.8,416.9 218.4,313.3 		"/>
		<line class="st7" x1="354" y1="483.3" x2="354" y2="309.9"/>
		<line class="st7" x1="-51.5" y1="309.9" x2="-51.5" y2="483.3"/>
		<g>
			<polyline class="st7" points="296.5,362.7 281.8,362.7 269.1,377.5 269.1,416.9 261.5,416.9 			"/>
			<polyline class="st7" points="225.5,416.9 218.5,416.9 169.2,416.9 			"/>
			<polyline class="st7" points="133.2,416.9 84.3,416.9 50.9,416.9 			"/>
			<polyline class="st7" points="14.9,416.9 8,416.9 8,346.1 -51.5,346.1 			"/>
		</g>
	</g>
</g>
</svg>
