<?xml version="1.0" encoding="utf-8"?>
<!-- Generator: Adobe Illustrator 19.1.0, SVG Export Plug-In . SVG Version: 6.00 Build 0)  -->
<svg version="1.1" id="Layer_1" xmlns="http://www.w3.org/2000/svg" xmlns:xlink="http://www.w3.org/1999/xlink" x="0px" y="0px"
	 viewBox="0 0 200 200" style="enable-background:new 0 0 200 200;" xml:space="preserve">
<style type="text/css">
	.st0{fill:#BE1E2D;}
	.st1{fill:#00A651;}
	.st2{fill:#FFFFFF;}
</style>
<g>
	<g>
		<path class="st0" d="M100,200c55.2,0,100-44.8,100-100H0C0,155.2,44.8,200,100,200z"/>
	</g>
	<g>
		<path class="st1" d="M100,0C44.8,0,0,44.8,0,100h200C200,44.8,155.2,0,100,0z"/>
	</g>
</g>
<g>
	<path class="st2" d="M138,135.7c3-3.2,7.7-2.7,11.5,0.9c3.8,3.6,4.6,8.3,1.6,11.5c-3,3.2-7.7,2.7-11.5-0.9
		C135.7,143.6,135,138.9,138,135.7z M149.8,146.9c2.1-2.2,1.6-5.8-1.6-8.8c-3.2-3-6.9-3.3-9-1.1c-2.1,2.2-1.6,5.8,1.6,8.8
		C144.1,148.8,147.7,149.1,149.8,146.9z"/>
	<path class="st2" d="M125.3,145.6c3.7-2.1,8.1-0.2,10.6,4.2c2.6,4.5,2,9.3-1.7,11.4c-2.1,1.2-4.1,1.3-6.2,0.4l0.8-1.8
		c1.7,0.8,3,0.8,4.6-0.1c2.6-1.5,3-5.2,0.8-8.8c-2.1-3.7-5.6-5.2-8.1-3.7c-1.6,1-2.3,2.3-2.6,4.2l-1.8-0.3
		C122,148.9,123.1,146.9,125.3,145.6z"/>
	<path class="st2" d="M112.3,150.8c4.1-1.1,7.8,1.9,9.1,6.9c1.3,5-0.5,9.5-4.6,10.6c-2.3,0.6-4.3,0.2-6.1-1.3l1.2-1.5
		c1.5,1.2,2.7,1.6,4.5,1.1c2.9-0.8,4.2-4.2,3.1-8.3c-1.1-4.1-4-6.5-6.9-5.7c-1.8,0.5-2.9,1.6-3.6,3.3l-1.6-0.8
		C108.3,153.1,109.8,151.5,112.3,150.8z"/>
	<path class="st2" d="M98.4,152.4c4.2,0.1,6.3,2.6,6.2,7.5l-0.2,10.4l-1.9,0l0.2-10.3c0.1-3.8-1.4-5.7-4.4-5.7
		c-3-0.1-4.3,1.8-4.3,5.5l-0.2,10.4l-1.9,0l0.2-10.3C92,154.9,94.2,152.3,98.4,152.4z"/>
	<path class="st2" d="M80.8,156.6l4.1,1.3l2-6.6l1.9,0.6l-5.1,16.7l-6.3-1.9c-3-0.9-4.8-3.2-3.8-6.6
		C74.6,156.7,77.5,155.6,80.8,156.6z M77.9,165l4.3,1.3l2.1-6.8l-4.1-1.3c-2.6-0.8-4.1,0-4.8,2.2C74.8,162.7,75.6,164.3,77.9,165z"
		/>
	<path class="st2" d="M74.9,146.8l-8.3,15.4l-1.7-0.9l8.3-15.4L74.9,146.8z"/>
	<path class="st2" d="M69.7,144l-11,13.6l-8.2-6.6l1.1-1.4l6.7,5.4l3.5-4.3l-3.9-3.1l1.1-1.4l3.9,3.1l4.2-5.2l-7-5.6l1.1-1.4
		L69.7,144z"/>
	<path class="st2" d="M56.9,131.7l2.5,3.5l-14.2,10.2l-2.7-3.8c-2.7-3.7-2.5-8,2.3-11.5C49.9,126.5,54.1,127.9,56.9,131.7z
		 M44,140.8l1.5,2l11.3-8.1l-1.5-2.1c-2.2-3.1-5.2-3.8-9.3-0.9C42.4,134.3,41.6,137.5,44,140.8z"/>
	<path class="st2" d="M56.9,66.2L52.4,65l-3.9,6.1l2.9,3.7l-1.1,1.7L38.8,62l1.2-1.8l18,4.3L56.9,66.2z M44.7,63.1
		c-1.2-0.3-2.8-0.7-3.5-0.9c0.5,0.5,1.6,1.8,2.4,2.8l3.8,4.7l3.2-5.1L44.7,63.1z"/>
	<path class="st2" d="M63.6,59.3L62,60.8l-16.3-8.7l1.5-1.4l11,6.1c1,0.5,2.6,1.4,3.1,1.8c-0.3-0.6-1.1-2.3-1.6-3.3l-5.3-11.4
		l1.5-1.4L63.6,59.3z"/>
	<path class="st2" d="M78.2,49.7l-3.4-3.2L68.4,50l0.8,4.6l-1.8,1l-3.1-18.3l1.9-1L80,48.8L78.2,49.7z M68.9,41.2
		c-0.9-0.8-2.1-2-2.6-2.5c0.2,0.7,0.5,2.3,0.7,3.6l1,5.9l5.3-2.9L68.9,41.2z"/>
	<path class="st2" d="M82.9,48.2l-5.1-16.7l1.9-0.6l5.1,16.7L82.9,48.2z"/>
	<path class="st2" d="M88.6,46.5l-1.9-17.4l1.9-0.2l1.7,15.6l8.6-0.9l0.2,1.8L88.6,46.5z"/>
	<path class="st2" d="M113,47.2l-0.8-4.6l-7.1-1.2l-2.2,4.1l-2-0.3l8.8-16.3l2.1,0.3l3.2,18.2L113,47.2z M110.9,34.7
		c-0.2-1.2-0.5-2.8-0.5-3.6c-0.3,0.7-1,2.1-1.6,3.3l-2.8,5.3l5.9,1L110.9,34.7z"/>
	<path class="st2" d="M123,51.2l-5.7-2.7l7.5-15.8l5.8,2.8c2.5,1.2,3.7,3.3,2.4,6c-0.8,1.7-2.3,2.3-3.8,2.1c1.3,1.1,2.4,2.8,1.1,5.4
		C128.9,52.1,126.3,52.7,123,51.2z M129.8,37l-3.9-1.9l-2.3,4.9l3.8,1.8c2,0.9,3.3,0.2,3.9-1.2C131.9,39.2,131.5,37.8,129.8,37z
		 M126.7,43.5l-3.9-1.9l-2.9,6.1l4,1.9c2.4,1.1,3.8,0.4,4.7-1.4C129.5,46.2,128.7,44.5,126.7,43.5z"/>
	<path class="st2" d="M130.2,55.2l11.3-13.3l1.5,1.3l-10.2,12l6.6,5.6l-1.1,1.4L130.2,55.2z"/>
	<path class="st2" d="M140.1,64.2l14.3-10.1l6.1,8.6l-1.4,1l-5-7l-4.5,3.2l2.9,4.1l-1.4,1l-2.9-4.1l-5.4,3.9l5.2,7.3l-1.4,1
		L140.1,64.2z"/>
</g>
</svg>
